<mxfile host="65bd71144e">
    <diagram id="5xL5rzcaL9H71VMkj5A1" name="第 1 页">
        <mxGraphModel dx="498" dy="399" grid="1" gridSize="10" guides="1" tooltips="1" connect="1" arrows="1" fold="1" page="1" pageScale="1" pageWidth="827" pageHeight="1169" math="0" shadow="0">
            <root>
                <mxCell id="0"/>
                <mxCell id="1" parent="0"/>
                <mxCell id="2" value="1、背景图&lt;br&gt;2、文本（按钮）二者其实是一类，无非是样式的不同和是否有点击，或者是否有背景图&lt;br&gt;3.元素图片。转盘啊指针" style="rounded=1;whiteSpace=wrap;html=1;" vertex="1" parent="1">
                    <mxGeometry x="190" y="20" width="170" height="100" as="geometry"/>
                </mxCell>
            </root>
        </mxGraphModel>
    </diagram>
</mxfile>